Title:
Marie Kroyer Aka Balladen om Marie

Country:
Denmark/2012

Language:
Danish

Subtitle:
English

Director:
Bille August

Writers:
Anastassia Arnold (book), Peter Asmussen (screenplay)

Stars:
Birgitte Hjort Sorensen, Soren Saeter-Lassen, Sverrir Gudnason

Synopsis:
At the beginning of the 20th century, Marie is married to Denmark's world famous painter P.S. Krøyer. They are among the country's most admired and famous couples. All the great men of the time - politicians, businessmen, noblemen, scientists, writers and royalty - wish to be depicted by Krøyer, and he can ask any price he wants. To be painted by him is a great honour and comes with great prestige. Marie, who adorns several of Krøyer's paintings, is considered to be "the most beautiful woman in Europe". Together with their daughter Vibeke they experience all the best life has to offer: parties, champagne and luxury. However, this is only the polished surface. Beneath it is living hell. Krøyer suffers from manic depression and syphilis. He can change from being cheerful and upbeat, to a foaming crazy monster without any boundaries, also within his relationship to Marie and Vibeke. Marie has struggled to keep up appearances for a long time, but the situation is wearing her down. She is ... 

Trivia:
Oficial Selection Rio de Janeiro International Film Festival/2012 and Chicago International Film Festival/2012 

Imdb: 
http://www.imdb.com/title/tt1961192

Trailer: 
http://www.cine.gr/film.asp?id=716818

Media Info:

General
Complete name                            : Marie.Kroyer.2012.DVDRip.XviD.AC3.HORiZON-ArtSubs
Format                                   : AVI
Format/Info                              : Audio Video Interleave
File size                                : 1.46 GiB
Duration                                 : 1h 38mn
Overall bit rate                         : 2 133 Kbps
Writing application                      : FairUse Wizard - http://fairusewizard.com
Writing library                          : The best and REALLY easy backup tool

Video
ID                                       : 0
Format                                   : MPEG-4 Visual
Format profile                           : Advanced Simple@L5
Format settings, BVOP                    : 1
Format settings, QPel                    : No
Format settings, GMC                     : No warppoints
Format settings, Matrix                  : Default (MPEG)
Muxing mode                              : Packed bitstream
Codec ID                                 : XVID
Codec ID/Hint                            : XviD
Duration                                 : 1h 38mn
Bit rate                                 : 1 675 Kbps
Width                                    : 688 pixels
Height                                   : 288 pixels
Display aspect ratio                     : 2.40:1
Frame rate                               : 25.000 fps
Color space                              : YUV
Chroma subsampling                       : 4:2:0
Bit depth                                : 8 bits
Scan type                                : Progressive
Compression mode                         : Lossy
Bits/(Pixel*Frame)                       : 0.338
Stream size                              : 1.15 GiB (79%)
Writing library                          : XviD 1.2.0.dev47 (UTC 2006-11-01)

Audio
ID                                       : 1
Format                                   : AC-3
Format/Info                              : Audio Coding 3
Mode extension                           : CM (complete main)
Format settings, Endianness              : Big
Codec ID                                 : 2000
Duration                                 : 1h 38mn
Bit rate mode                            : Constant
Bit rate                                 : 448 Kbps
Channel(s)                               : 6 channels
Channel positions                        : Front: L C R, Side: L R, LFE
Sampling rate                            : 48.0 KHz
Bit depth                                : 16 bits
Compression mode                         : Lossy
Stream size                              : 315 MiB (21%)
Alignment                                : Split accross interleaves
Interleave, duration                     : 40 ms (1.00 video frame)
Interleave, preload duration             : 500 ms

